<svg width="17" height="24" viewBox="0 0 17 24" fill="none" xmlns="http://www.w3.org/2000/svg">
<g clip-path="url(#clip0)">
<path d="M14.9201 14.9672H5.61537L6.08256 14.0156L13.8451 14.0016C14.1076 14.0016 14.3326 13.8141 14.3794 13.5547L15.4544 7.5375C15.4826 7.37969 15.4404 7.21719 15.3372 7.09375C15.2863 7.033 15.2227 6.98407 15.1509 6.95034C15.0792 6.91661 15.0009 6.8989 14.9216 6.89844L5.04662 6.86562L4.96224 6.46875C4.90912 6.21562 4.68099 6.03125 4.42162 6.03125H2.00756C1.86127 6.03125 1.72098 6.08936 1.61754 6.1928C1.5141 6.29624 1.45599 6.43653 1.45599 6.58281C1.45599 6.7291 1.5141 6.86939 1.61754 6.97283C1.72098 7.07626 1.86127 7.13438 2.00756 7.13438H3.97474L4.34349 8.8875L5.25131 13.2828L4.08256 15.1906C4.02186 15.2725 3.9853 15.3698 3.97702 15.4714C3.96874 15.573 3.98906 15.675 4.03568 15.7656C4.12943 15.9516 4.31849 16.0688 4.52787 16.0688H5.50912C5.29993 16.3466 5.18694 16.685 5.18724 17.0328C5.18724 17.9172 5.90599 18.6359 6.79037 18.6359C7.67474 18.6359 8.39349 17.9172 8.39349 17.0328C8.39349 16.6844 8.27787 16.3453 8.07162 16.0688H10.5888C10.3796 16.3466 10.2666 16.685 10.2669 17.0328C10.2669 17.9172 10.9857 18.6359 11.8701 18.6359C12.7544 18.6359 13.4732 17.9172 13.4732 17.0328C13.4732 16.6844 13.3576 16.3453 13.1513 16.0688H14.9216C15.2247 16.0688 15.4732 15.8219 15.4732 15.5172C15.4723 15.3711 15.4136 15.2312 15.31 15.1282C15.2064 15.0251 15.0662 14.9673 14.9201 14.9672V14.9672ZM5.27631 7.95312L14.2732 7.98281L13.3919 12.9172L6.32474 12.9297L5.27631 7.95312ZM6.79037 17.5266C6.51849 17.5266 6.29662 17.3047 6.29662 17.0328C6.29662 16.7609 6.51849 16.5391 6.79037 16.5391C7.06224 16.5391 7.28412 16.7609 7.28412 17.0328C7.28412 17.1638 7.2321 17.2894 7.1395 17.3819C7.04691 17.4745 6.92132 17.5266 6.79037 17.5266V17.5266ZM11.8701 17.5266C11.5982 17.5266 11.3763 17.3047 11.3763 17.0328C11.3763 16.7609 11.5982 16.5391 11.8701 16.5391C12.1419 16.5391 12.3638 16.7609 12.3638 17.0328C12.3638 17.1638 12.3118 17.2894 12.2192 17.3819C12.1266 17.4745 12.001 17.5266 11.8701 17.5266V17.5266Z" fill="#8C8C8C"/>
</g>
<defs>
<clipPath id="clip0">
<rect x="0.5" width="16" height="24" fill="white"/>
</clipPath>
</defs>
</svg>
